# xmcd
#
# Track frame offsets:
#	150
#	12654
#	27054
#	40517
#	52717
#	64291
#	81964
#	93982
#	105055
#	126376
#	140466
#	156443
#	170968
#	183097
#	195487
#	211809
#	223893
#	240866
#
# Disc length: 3361 seconds
#
# Revision: 0
# Processed by: cddbd v1.4PL0 Copyright (c) Steve Scherf et al.
# Submitted via: EasyCDDAExtractor 4.6.9.1
#
DISCID=ed0d1f12
DTITLE=Various Artist - Country Duets
DYEAR=1900
DGENRE=Country
TTITLE0=Just To Satisfy You - Waylon Jennings and Willie Nelson
TTITLE1=Yesterday's Wine - George Jones and Merle Haggard
TTITLE2=Golden Ring - George Jones and Tammy Wynette
TTITLE3=Jackson - Johnny Cash with June Carter Cash
TTITLE4=Milwaukee, Here I Come - George Jones and Brenda Carter
TTITLE5=Suspicious Minds - Waylon Jennings and Jessi Colter
TTITLE6=The Bull And The Beaver - Merle Haggard and Leona Williams
TTITLE7=Louisiana Woman, Mississippi Man - Conwat Twitty and Loretta Lynn
TTITLE8=Pancho And Lefty - Willie Nelson and Merle Haggard
TTITLE9=Come A Little Bit Closer - Johnny Duncan and Janie Frickie
TTITLE10=A Place To Fall Apart - Merle Haggard and Janie Frickie
TTITLE11=There Ain't No Good Chain Gang - Johnny Cash and Waylon Jennings
TTITLE12=Just Between The Two Of Us - Merle Haggard and Bonnie Owens
TTITLE13=Please Don't Stop Loving Me - Porter Wagoner and Dolly Parton
TTITLE14=Sometimes When We Touch - Tammy Wynette and Matk Gray
TTITLE15=Louisiana Man - George Jones and Gene Pitney
TTITLE16=Faded Love - Willie Nelson with Ray Price
TTITLE17=Why Baby Why - Red Sovine and Webb Pierce
EXTD=
EXTT0=
EXTT1=
EXTT2=
EXTT3=
EXTT4=
EXTT5=
EXTT6=
EXTT7=
EXTT8=
EXTT9=
EXTT10=
EXTT11=
EXTT12=
EXTT13=
EXTT14=
EXTT15=
EXTT16=
EXTT17=
PLAYORDER=
